<svg xmlns="http://www.w3.org/2000/svg" viewBox="0 0 265.14 194.73"><defs><style>.cls-1{fill:none;stroke:#0455a5;stroke-miterlimit:10;stroke-width:2px;}</style></defs><g id="Layer_2" data-name="Layer 2"><g id="Layer_1-2" data-name="Layer 1"><path class="cls-1" d="M205.94,31.05c-26.66,0-53.29-.22-79.94.12-12.89.16-14.46-9.47-20.53-18.68C101.93,7.13,97.26,1,90.17,1h-66A23.2,23.2,0,0,0,1,24.2V171a22.72,22.72,0,0,0,22.72,22.72h180A22.72,22.72,0,0,0,226.39,171V51.49A20.45,20.45,0,0,0,205.94,31.05Z"/><path class="cls-1" d="M216.13,193.73H21.68C11.6,193.73,4.57,183.09,8,173L41.69,72.49A16.28,16.28,0,0,1,56.94,61h191c11.21,0,19,11.83,15.26,23.07l-33.34,99.32A14.66,14.66,0,0,1,216.13,193.73Z"/></g></g></svg>